<mxfile host="Electron" modified="2025-05-06T22:11:42.184Z" agent="Mozilla/5.0 (Macintosh; Intel Mac OS X 10_15_7) AppleWebKit/537.36 (KHTML, like Gecko) draw.io/24.2.5 Chrome/120.0.6099.109 Electron/28.1.0 Safari/537.36" etag="aQhAV7rRSp1PQ0gyhJoR" version="24.2.5" type="device">
  <diagram id="C5RBs43oDa-KdzZeNtuy" name="Page-1">
    <mxGraphModel dx="2014" dy="861" grid="1" gridSize="10" guides="1" tooltips="1" connect="1" arrows="1" fold="1" page="1" pageScale="1" pageWidth="827" pageHeight="1169" math="0" shadow="0">
      <root>
        <mxCell id="WIyWlLk6GJQsqaUBKTNV-0" />
        <mxCell id="WIyWlLk6GJQsqaUBKTNV-1" parent="WIyWlLk6GJQsqaUBKTNV-0" />
        <mxCell id="NHXv4hmjW0D5qCGexsZB-18" value="" style="rounded=0;whiteSpace=wrap;html=1;fillColor=default;strokeColor=none;shadow=0;" parent="WIyWlLk6GJQsqaUBKTNV-1" vertex="1">
          <mxGeometry x="-350" y="60" width="1030" height="540" as="geometry" />
        </mxCell>
        <mxCell id="v4nWJPfUB4EfZm27fNRs-55" value="&lt;font size=&quot;1&quot; style=&quot;text-align: center;&quot; face=&quot;Times New Roman&quot;&gt;&lt;i&gt;M&lt;sub&gt;cockpit&lt;/sub&gt;&lt;/i&gt;&lt;/font&gt;&lt;font style=&quot;text-align: center;&quot; size=&quot;1&quot; face=&quot;Times New Roman&quot;&gt;&lt;i&gt;&amp;nbsp;=&amp;nbsp;&lt;/i&gt;&lt;/font&gt;&lt;i style=&quot;font-family: &amp;quot;Times New Roman&amp;quot;; font-size: x-small; text-align: center;&quot;&gt;M&lt;sub&gt;corpo&lt;/sub&gt;&lt;/i&gt;&lt;i style=&quot;font-family: &amp;quot;Times New Roman&amp;quot;; font-size: x-small; text-align: center;&quot;&gt;&amp;nbsp;.&amp;nbsp;&lt;/i&gt;&lt;i style=&quot;text-align: center; font-family: &amp;quot;Times New Roman&amp;quot;; font-size: x-small;&quot;&gt;T(0,&amp;nbsp;&lt;/i&gt;&lt;i style=&quot;border-color: var(--border-color); text-align: center; font-family: &amp;quot;Times New Roman&amp;quot;; font-size: x-small;&quot;&gt;h&lt;sub style=&quot;border-color: var(--border-color);&quot;&gt;corpo&lt;/sub&gt;&lt;/i&gt;&lt;i style=&quot;border-color: var(--border-color); text-align: center; font-family: &amp;quot;Times New Roman&amp;quot;; font-size: x-small;&quot;&gt;/4&lt;/i&gt;&lt;i style=&quot;text-align: center; font-family: &amp;quot;Times New Roman&amp;quot;; font-size: x-small;&quot;&gt;, 0)&lt;/i&gt;" style="text;whiteSpace=wrap;html=1;fontSize=9;fontFamily=Helvetica;fontColor=#000000;" parent="WIyWlLk6GJQsqaUBKTNV-1" vertex="1">
          <mxGeometry x="423" y="327" width="148" height="30" as="geometry" />
        </mxCell>
        <mxCell id="WIyWlLk6GJQsqaUBKTNV-3" value="&lt;font color=&quot;#fffcfd&quot;&gt;&lt;span style=&quot;font-size: 10px;&quot;&gt;Disco Voador&lt;/span&gt;&lt;/font&gt;" style="rounded=1;whiteSpace=wrap;html=1;fontSize=12;glass=0;strokeWidth=1;shadow=0;fillColor=#808080;" parent="WIyWlLk6GJQsqaUBKTNV-1" vertex="1">
          <mxGeometry x="10" y="90" width="100" height="30" as="geometry" />
        </mxCell>
        <mxCell id="v4nWJPfUB4EfZm27fNRs-0" value="" style="endArrow=none;html=1;rounded=0;entryX=0.5;entryY=1;entryDx=0;entryDy=0;exitX=0.5;exitY=0;exitDx=0;exitDy=0;" parent="WIyWlLk6GJQsqaUBKTNV-1" source="v4nWJPfUB4EfZm27fNRs-3" target="WIyWlLk6GJQsqaUBKTNV-3" edge="1">
          <mxGeometry width="50" height="50" relative="1" as="geometry">
            <mxPoint x="220" y="170" as="sourcePoint" />
            <mxPoint x="280" y="160" as="targetPoint" />
          </mxGeometry>
        </mxCell>
        <mxCell id="v4nWJPfUB4EfZm27fNRs-3" value="&lt;font size=&quot;1&quot; face=&quot;Times New Roman&quot; style=&quot;&quot;&gt;&lt;i style=&quot;&quot;&gt;T(t&lt;sub&gt;x&lt;/sub&gt;, 0, t&lt;sub&gt;z&lt;/sub&gt;)&lt;/i&gt;&lt;/font&gt;" style="ellipse;whiteSpace=wrap;html=1;rounded=1;fillColor=#E6E6E6;" parent="WIyWlLk6GJQsqaUBKTNV-1" vertex="1">
          <mxGeometry y="140" width="120" height="30" as="geometry" />
        </mxCell>
        <mxCell id="v4nWJPfUB4EfZm27fNRs-4" value="" style="endArrow=none;html=1;rounded=0;fontSize=10;fontColor=#FFFCFD;entryX=0.5;entryY=1;entryDx=0;entryDy=0;exitX=0.5;exitY=0;exitDx=0;exitDy=0;" parent="WIyWlLk6GJQsqaUBKTNV-1" edge="1" target="v4nWJPfUB4EfZm27fNRs-9" source="v4nWJPfUB4EfZm27fNRs-6">
          <mxGeometry width="50" height="50" relative="1" as="geometry">
            <mxPoint x="210" y="230" as="sourcePoint" />
            <mxPoint x="210" y="210" as="targetPoint" />
          </mxGeometry>
        </mxCell>
        <mxCell id="v4nWJPfUB4EfZm27fNRs-5" value="" style="endArrow=none;html=1;rounded=0;fontSize=10;fontColor=#FFFCFD;startArrow=none;" parent="WIyWlLk6GJQsqaUBKTNV-1" edge="1">
          <mxGeometry width="50" height="50" relative="1" as="geometry">
            <mxPoint x="210" y="180" as="sourcePoint" />
            <mxPoint x="210" y="180" as="targetPoint" />
          </mxGeometry>
        </mxCell>
        <mxCell id="v4nWJPfUB4EfZm27fNRs-6" value="" style="ellipse;whiteSpace=wrap;html=1;rounded=1;labelBackgroundColor=#E6E6E6;strokeColor=#000000;fontSize=10;fontColor=#FFFCFD;fillColor=#000000;" parent="WIyWlLk6GJQsqaUBKTNV-1" vertex="1">
          <mxGeometry x="55" y="230" width="10" height="10" as="geometry" />
        </mxCell>
        <mxCell id="v4nWJPfUB4EfZm27fNRs-7" value="" style="endArrow=none;html=1;rounded=0;fontSize=10;fontColor=#FFFCFD;entryX=0;entryY=0.5;entryDx=0;entryDy=0;exitX=1;exitY=0;exitDx=0;exitDy=0;" parent="WIyWlLk6GJQsqaUBKTNV-1" source="v4nWJPfUB4EfZm27fNRs-11" target="v4nWJPfUB4EfZm27fNRs-6" edge="1">
          <mxGeometry width="50" height="50" relative="1" as="geometry">
            <mxPoint x="160" y="260" as="sourcePoint" />
            <mxPoint x="200" y="250" as="targetPoint" />
          </mxGeometry>
        </mxCell>
        <mxCell id="v4nWJPfUB4EfZm27fNRs-8" value="" style="endArrow=none;html=1;rounded=0;fontSize=10;fontColor=#FFFCFD;entryX=0.5;entryY=1;entryDx=0;entryDy=0;exitX=0.5;exitY=0;exitDx=0;exitDy=0;" parent="WIyWlLk6GJQsqaUBKTNV-1" target="v4nWJPfUB4EfZm27fNRs-3" edge="1" source="v4nWJPfUB4EfZm27fNRs-9">
          <mxGeometry width="50" height="50" relative="1" as="geometry">
            <mxPoint x="210" y="180" as="sourcePoint" />
            <mxPoint x="230" y="140" as="targetPoint" />
          </mxGeometry>
        </mxCell>
        <mxCell id="v4nWJPfUB4EfZm27fNRs-9" value="&lt;font size=&quot;1&quot; face=&quot;Times New Roman&quot; style=&quot;&quot;&gt;&lt;i style=&quot;&quot;&gt;R&lt;sub&gt;y&lt;/sub&gt;(&lt;/i&gt;&lt;/font&gt;&lt;font size=&quot;1&quot; face=&quot;Times New Roman&quot;&gt;&lt;i&gt;Î´)&lt;/i&gt;&lt;/font&gt;" style="ellipse;whiteSpace=wrap;html=1;rounded=1;fillColor=#E6E6E6;" parent="WIyWlLk6GJQsqaUBKTNV-1" vertex="1">
          <mxGeometry y="180" width="120" height="30" as="geometry" />
        </mxCell>
        <mxCell id="v4nWJPfUB4EfZm27fNRs-10" value="" style="rounded=1;whiteSpace=wrap;html=1;labelBackgroundColor=#E6E6E6;strokeColor=#000000;fontFamily=Times New Roman;fontSize=8;fontColor=#FFFCFD;fillColor=none;dashed=1;dashPattern=1 1;" parent="WIyWlLk6GJQsqaUBKTNV-1" vertex="1">
          <mxGeometry x="-340" y="270" width="140" height="100" as="geometry" />
        </mxCell>
        <mxCell id="v4nWJPfUB4EfZm27fNRs-17" style="edgeStyle=orthogonalEdgeStyle;rounded=0;orthogonalLoop=1;jettySize=auto;html=1;exitX=0.5;exitY=1;exitDx=0;exitDy=0;entryX=0.5;entryY=0;entryDx=0;entryDy=0;fontFamily=Times New Roman;fontSize=6;fontColor=#FFFCFD;endArrow=none;endFill=0;" parent="WIyWlLk6GJQsqaUBKTNV-1" source="v4nWJPfUB4EfZm27fNRs-11" target="v4nWJPfUB4EfZm27fNRs-12" edge="1">
          <mxGeometry relative="1" as="geometry" />
        </mxCell>
        <mxCell id="v4nWJPfUB4EfZm27fNRs-11" value="&lt;font size=&quot;1&quot; face=&quot;Times New Roman&quot;&gt;&lt;i&gt;S(2r&lt;sub&gt;corpo&lt;/sub&gt;, h&lt;/i&gt;&lt;/font&gt;&lt;i style=&quot;font-family: &amp;quot;Times New Roman&amp;quot;; font-size: x-small;&quot;&gt;&lt;sub&gt;corpo&lt;/sub&gt;&lt;/i&gt;&lt;font size=&quot;1&quot; face=&quot;Times New Roman&quot;&gt;&lt;i&gt;, 2&lt;/i&gt;&lt;/font&gt;&lt;i style=&quot;font-family: &amp;quot;Times New Roman&amp;quot;; font-size: x-small;&quot;&gt;r&lt;sub&gt;corpo&lt;/sub&gt;&lt;/i&gt;&lt;font size=&quot;1&quot; face=&quot;Times New Roman&quot;&gt;&lt;i&gt;)&lt;/i&gt;&lt;/font&gt;" style="ellipse;whiteSpace=wrap;html=1;rounded=1;fillColor=#E6E6E6;" parent="WIyWlLk6GJQsqaUBKTNV-1" vertex="1">
          <mxGeometry x="-330" y="290" width="120" height="30" as="geometry" />
        </mxCell>
        <mxCell id="v4nWJPfUB4EfZm27fNRs-12" value="&lt;font color=&quot;#fffcfd&quot; style=&quot;font-size: 10px;&quot;&gt;Esfera&lt;/font&gt;" style="rounded=1;whiteSpace=wrap;html=1;fontSize=12;glass=0;strokeWidth=1;shadow=0;fillColor=#808080;" parent="WIyWlLk6GJQsqaUBKTNV-1" vertex="1">
          <mxGeometry x="-320" y="331" width="100" height="30" as="geometry" />
        </mxCell>
        <mxCell id="v4nWJPfUB4EfZm27fNRs-19" value="&lt;font color=&quot;#000000&quot; style=&quot;line-height: 1.2; font-size: 9px;&quot; face=&quot;Helvetica&quot;&gt;&amp;nbsp; &amp;nbsp;Corpo &lt;/font&gt;&lt;font color=&quot;#000000&quot; style=&quot;line-height: 1.2; font-size: 7px;&quot; face=&quot;Helvetica&quot;&gt;(esfera achatada)&lt;/font&gt;" style="text;html=1;align=left;verticalAlign=middle;whiteSpace=wrap;rounded=0;dashed=1;dashPattern=1 1;labelBackgroundColor=none;fontFamily=Times New Roman;fontSize=6;" parent="WIyWlLk6GJQsqaUBKTNV-1" vertex="1">
          <mxGeometry x="-340" y="271" width="120" height="20" as="geometry" />
        </mxCell>
        <mxCell id="v4nWJPfUB4EfZm27fNRs-20" value="&lt;font size=&quot;1&quot; style=&quot;text-align: center;&quot; face=&quot;Times New Roman&quot;&gt;&lt;i&gt;M&lt;sub&gt;corpo&lt;/sub&gt;&lt;/i&gt;&lt;/font&gt;&lt;font style=&quot;text-align: center;&quot; size=&quot;1&quot; face=&quot;Times New Roman&quot;&gt;&lt;i&gt;&amp;nbsp;=&amp;nbsp;&lt;/i&gt;&lt;/font&gt;&lt;i style=&quot;border-color: var(--border-color); font-family: &amp;quot;Times New Roman&amp;quot;; font-size: x-small; text-align: center;&quot;&gt;T(t&lt;sub style=&quot;border-color: var(--border-color);&quot;&gt;x&lt;/sub&gt;, 0, t&lt;sub style=&quot;border-color: var(--border-color);&quot;&gt;z&lt;/sub&gt;) .&amp;nbsp;&lt;/i&gt;&lt;font style=&quot;text-align: center;&quot; size=&quot;1&quot; face=&quot;Times New Roman&quot;&gt;&lt;i&gt;R&lt;sub&gt;y&lt;/sub&gt;(&lt;/i&gt;&lt;/font&gt;&lt;font style=&quot;text-align: center;&quot; size=&quot;1&quot; face=&quot;Times New Roman&quot;&gt;&lt;i&gt;Î´)&lt;/i&gt;&lt;/font&gt;" style="text;whiteSpace=wrap;html=1;fontSize=9;fontFamily=Helvetica;fontColor=#000000;" parent="WIyWlLk6GJQsqaUBKTNV-1" vertex="1">
          <mxGeometry x="70" y="210" width="110" height="30" as="geometry" />
        </mxCell>
        <mxCell id="v4nWJPfUB4EfZm27fNRs-22" value="" style="rounded=1;whiteSpace=wrap;html=1;labelBackgroundColor=#E6E6E6;strokeColor=#000000;fontFamily=Times New Roman;fontSize=8;fontColor=#FFFCFD;fillColor=none;dashed=1;dashPattern=1 1;" parent="WIyWlLk6GJQsqaUBKTNV-1" vertex="1">
          <mxGeometry x="380" y="377" width="159" height="100" as="geometry" />
        </mxCell>
        <mxCell id="v4nWJPfUB4EfZm27fNRs-23" style="edgeStyle=orthogonalEdgeStyle;rounded=0;orthogonalLoop=1;jettySize=auto;html=1;exitX=0.5;exitY=1;exitDx=0;exitDy=0;entryX=0.5;entryY=0;entryDx=0;entryDy=0;fontFamily=Times New Roman;fontSize=6;fontColor=#FFFCFD;endArrow=none;endFill=0;" parent="WIyWlLk6GJQsqaUBKTNV-1" source="v4nWJPfUB4EfZm27fNRs-24" target="v4nWJPfUB4EfZm27fNRs-25" edge="1">
          <mxGeometry relative="1" as="geometry" />
        </mxCell>
        <mxCell id="v4nWJPfUB4EfZm27fNRs-24" value="&lt;font face=&quot;Times New Roman&quot;&gt;&lt;i style=&quot;&quot;&gt;&lt;font size=&quot;1&quot;&gt;S(2r&lt;/font&gt;&lt;sub style=&quot;&quot;&gt;&lt;font style=&quot;font-size: 8.33333px;&quot;&gt;cockpit&lt;/font&gt;&lt;/sub&gt;&lt;font size=&quot;1&quot;&gt;, h&lt;/font&gt;&lt;/i&gt;&lt;/font&gt;&lt;i style=&quot;font-family: &amp;quot;Times New Roman&amp;quot;;&quot;&gt;&lt;sub&gt;&lt;font style=&quot;font-size: 8.33333px;&quot;&gt;cockpit&lt;/font&gt;&lt;/sub&gt;&lt;/i&gt;&lt;font face=&quot;Times New Roman&quot;&gt;&lt;i style=&quot;&quot;&gt;&lt;font size=&quot;1&quot;&gt;, 2r&lt;/font&gt;&lt;/i&gt;&lt;/font&gt;&lt;i style=&quot;font-family: &amp;quot;Times New Roman&amp;quot;;&quot;&gt;&lt;sub&gt;&lt;font style=&quot;font-size: 8.33333px;&quot;&gt;cockpit&lt;/font&gt;&lt;/sub&gt;&lt;/i&gt;&lt;font face=&quot;Times New Roman&quot;&gt;&lt;i style=&quot;&quot;&gt;&lt;font size=&quot;1&quot;&gt;)&lt;/font&gt;&lt;/i&gt;&lt;/font&gt;" style="ellipse;whiteSpace=wrap;html=1;rounded=1;fillColor=#E6E6E6;" parent="WIyWlLk6GJQsqaUBKTNV-1" vertex="1">
          <mxGeometry x="389" y="397" width="140" height="30" as="geometry" />
        </mxCell>
        <mxCell id="v4nWJPfUB4EfZm27fNRs-25" value="&lt;font color=&quot;#fffcfd&quot; style=&quot;font-size: 10px;&quot;&gt;Semi-esfera&lt;/font&gt;" style="rounded=1;whiteSpace=wrap;html=1;fontSize=12;glass=0;strokeWidth=1;shadow=0;fillColor=#808080;" parent="WIyWlLk6GJQsqaUBKTNV-1" vertex="1">
          <mxGeometry x="409" y="437" width="100" height="30" as="geometry" />
        </mxCell>
        <mxCell id="v4nWJPfUB4EfZm27fNRs-27" value="&lt;i style=&quot;font-family: &amp;quot;Times New Roman&amp;quot;; font-size: x-small;&quot;&gt;T(0, &lt;/i&gt;&lt;i style=&quot;font-family: &amp;quot;Times New Roman&amp;quot;; font-size: x-small;&quot;&gt;h&lt;sub&gt;corpo&lt;/sub&gt;&lt;/i&gt;&lt;i style=&quot;font-family: &amp;quot;Times New Roman&amp;quot;; font-size: x-small;&quot;&gt;/4, 0)&lt;/i&gt;" style="ellipse;whiteSpace=wrap;html=1;rounded=1;fillColor=#E6E6E6;" parent="WIyWlLk6GJQsqaUBKTNV-1" vertex="1">
          <mxGeometry x="350" y="291" width="120" height="30" as="geometry" />
        </mxCell>
        <mxCell id="v4nWJPfUB4EfZm27fNRs-28" value="" style="endArrow=none;html=1;rounded=0;fontFamily=Helvetica;fontSize=10;fontColor=#000000;entryX=1;entryY=0.5;entryDx=0;entryDy=0;" parent="WIyWlLk6GJQsqaUBKTNV-1" source="v4nWJPfUB4EfZm27fNRs-27" target="v4nWJPfUB4EfZm27fNRs-6" edge="1">
          <mxGeometry width="50" height="50" relative="1" as="geometry">
            <mxPoint x="230" y="360" as="sourcePoint" />
            <mxPoint x="220" y="280" as="targetPoint" />
          </mxGeometry>
        </mxCell>
        <mxCell id="v4nWJPfUB4EfZm27fNRs-31" value="" style="endArrow=none;html=1;rounded=0;fontSize=10;fontColor=#FFFCFD;entryX=0.5;entryY=1;entryDx=0;entryDy=0;exitX=0.317;exitY=0.063;exitDx=0;exitDy=0;exitPerimeter=0;" parent="WIyWlLk6GJQsqaUBKTNV-1" target="v4nWJPfUB4EfZm27fNRs-27" edge="1" source="v4nWJPfUB4EfZm27fNRs-32">
          <mxGeometry width="50" height="50" relative="1" as="geometry">
            <mxPoint x="616" y="370" as="sourcePoint" />
            <mxPoint x="616" y="350" as="targetPoint" />
          </mxGeometry>
        </mxCell>
        <mxCell id="v4nWJPfUB4EfZm27fNRs-32" value="" style="ellipse;whiteSpace=wrap;html=1;rounded=1;labelBackgroundColor=#E6E6E6;strokeColor=#000000;fontSize=10;fontColor=#FFFCFD;fillColor=#000000;" parent="WIyWlLk6GJQsqaUBKTNV-1" vertex="1">
          <mxGeometry x="413" y="351" width="10" height="10" as="geometry" />
        </mxCell>
        <mxCell id="v4nWJPfUB4EfZm27fNRs-34" value="" style="endArrow=none;html=1;rounded=0;fontFamily=Helvetica;fontSize=10;fontColor=#000000;exitX=0.224;exitY=0.082;exitDx=0;exitDy=0;exitPerimeter=0;entryX=0.556;entryY=0.969;entryDx=0;entryDy=0;entryPerimeter=0;" parent="WIyWlLk6GJQsqaUBKTNV-1" source="v4nWJPfUB4EfZm27fNRs-24" target="v4nWJPfUB4EfZm27fNRs-32" edge="1">
          <mxGeometry width="50" height="50" relative="1" as="geometry">
            <mxPoint x="230" y="462" as="sourcePoint" />
            <mxPoint x="420" y="357" as="targetPoint" />
            <Array as="points">
              <mxPoint x="420" y="380" />
            </Array>
          </mxGeometry>
        </mxCell>
        <mxCell id="v4nWJPfUB4EfZm27fNRs-35" value="&lt;font style=&quot;font-size: 10px;&quot;&gt;&lt;i style=&quot;font-family: &amp;quot;Times New Roman&amp;quot;;&quot;&gt;T(0, -h&lt;/i&gt;&lt;i style=&quot;font-family: &amp;quot;Times New Roman&amp;quot;;&quot;&gt;&lt;sub&gt;corpo&lt;/sub&gt;&lt;/i&gt;&lt;i style=&quot;font-family: &amp;quot;Times New Roman&amp;quot;;&quot;&gt;/2, 0)&lt;/i&gt;&lt;/font&gt;" style="ellipse;whiteSpace=wrap;html=1;rounded=1;fillColor=#E6E6E6;" parent="WIyWlLk6GJQsqaUBKTNV-1" vertex="1">
          <mxGeometry x="-99" y="290" width="120" height="30" as="geometry" />
        </mxCell>
        <mxCell id="v4nWJPfUB4EfZm27fNRs-36" value="" style="endArrow=none;html=1;rounded=0;fontFamily=Helvetica;fontSize=8.333333;fontColor=#000000;entryX=0;entryY=1;entryDx=0;entryDy=0;exitX=0.5;exitY=0;exitDx=0;exitDy=0;" parent="WIyWlLk6GJQsqaUBKTNV-1" source="v4nWJPfUB4EfZm27fNRs-35" target="v4nWJPfUB4EfZm27fNRs-6" edge="1">
          <mxGeometry width="50" height="50" relative="1" as="geometry">
            <mxPoint x="220" y="350" as="sourcePoint" />
            <mxPoint x="270" y="300" as="targetPoint" />
          </mxGeometry>
        </mxCell>
        <mxCell id="v4nWJPfUB4EfZm27fNRs-37" value="" style="endArrow=none;html=1;rounded=0;fontFamily=Helvetica;fontSize=8.333333;fontColor=#000000;exitX=0.094;exitY=0.792;exitDx=0;exitDy=0;entryX=0.5;entryY=0;entryDx=0;entryDy=0;exitPerimeter=0;" parent="WIyWlLk6GJQsqaUBKTNV-1" source="v4nWJPfUB4EfZm27fNRs-35" target="v4nWJPfUB4EfZm27fNRs-38" edge="1">
          <mxGeometry width="50" height="50" relative="1" as="geometry">
            <mxPoint x="-310" y="419" as="sourcePoint" />
            <mxPoint x="-300" y="449" as="targetPoint" />
          </mxGeometry>
        </mxCell>
        <mxCell id="v4nWJPfUB4EfZm27fNRs-38" value="" style="ellipse;whiteSpace=wrap;html=1;rounded=1;labelBackgroundColor=#E6E6E6;strokeColor=#000000;fontSize=10;fontColor=#FFFCFD;fillColor=#000000;" parent="WIyWlLk6GJQsqaUBKTNV-1" vertex="1">
          <mxGeometry x="-99" y="351" width="10" height="10" as="geometry" />
        </mxCell>
        <mxCell id="v4nWJPfUB4EfZm27fNRs-39" value="" style="endArrow=none;html=1;rounded=0;fontFamily=Helvetica;fontSize=8.333333;fontColor=#000000;exitX=0.5;exitY=1;exitDx=0;exitDy=0;entryX=0.249;entryY=0.087;entryDx=0;entryDy=0;entryPerimeter=0;" parent="WIyWlLk6GJQsqaUBKTNV-1" source="v4nWJPfUB4EfZm27fNRs-38" target="IKCTPIxUSSBsLg2Q_fOp-2" edge="1">
          <mxGeometry width="50" height="50" relative="1" as="geometry">
            <mxPoint x="-290" y="439" as="sourcePoint" />
            <mxPoint x="-300" y="479" as="targetPoint" />
          </mxGeometry>
        </mxCell>
        <mxCell id="v4nWJPfUB4EfZm27fNRs-50" value="" style="rounded=1;whiteSpace=wrap;html=1;labelBackgroundColor=#E6E6E6;strokeColor=#000000;fontFamily=Times New Roman;fontSize=8;fontColor=#FFFCFD;fillColor=none;dashed=1;dashPattern=1 1;" parent="WIyWlLk6GJQsqaUBKTNV-1" vertex="1">
          <mxGeometry x="-150" y="378" width="160" height="140" as="geometry" />
        </mxCell>
        <mxCell id="v4nWJPfUB4EfZm27fNRs-51" style="edgeStyle=orthogonalEdgeStyle;rounded=0;orthogonalLoop=1;jettySize=auto;html=1;exitX=0.5;exitY=1;exitDx=0;exitDy=0;entryX=0.5;entryY=0;entryDx=0;entryDy=0;fontFamily=Times New Roman;fontSize=6;fontColor=#FFFCFD;endArrow=none;endFill=0;" parent="WIyWlLk6GJQsqaUBKTNV-1" source="v4nWJPfUB4EfZm27fNRs-52" target="v4nWJPfUB4EfZm27fNRs-53" edge="1">
          <mxGeometry relative="1" as="geometry" />
        </mxCell>
        <mxCell id="v4nWJPfUB4EfZm27fNRs-52" value="&lt;font face=&quot;Times New Roman&quot;&gt;&lt;i&gt;&lt;font size=&quot;1&quot;&gt;S(2r&lt;/font&gt;&lt;sub&gt;&lt;font style=&quot;font-size: 8.33333px;&quot;&gt;cilindro&lt;/font&gt;&lt;/sub&gt;&lt;font size=&quot;1&quot;&gt;, h&lt;/font&gt;&lt;/i&gt;&lt;/font&gt;&lt;i style=&quot;font-family: &amp;quot;Times New Roman&amp;quot;;&quot;&gt;&lt;sub&gt;&lt;font style=&quot;font-size: 8.33333px;&quot;&gt;cilindro&lt;/font&gt;&lt;/sub&gt;&lt;/i&gt;&lt;font face=&quot;Times New Roman&quot;&gt;&lt;i&gt;&lt;font size=&quot;1&quot;&gt;, 2r&lt;/font&gt;&lt;/i&gt;&lt;/font&gt;&lt;i style=&quot;font-family: &amp;quot;Times New Roman&amp;quot;;&quot;&gt;&lt;sub&gt;&lt;font style=&quot;font-size: 8.33333px;&quot;&gt;cilindro&lt;/font&gt;&lt;/sub&gt;&lt;/i&gt;&lt;font face=&quot;Times New Roman&quot;&gt;&lt;i&gt;&lt;font size=&quot;1&quot;&gt;)&lt;/font&gt;&lt;/i&gt;&lt;/font&gt;" style="ellipse;whiteSpace=wrap;html=1;rounded=1;fillColor=#E6E6E6;" parent="WIyWlLk6GJQsqaUBKTNV-1" vertex="1">
          <mxGeometry x="-140" y="438" width="140" height="30" as="geometry" />
        </mxCell>
        <mxCell id="v4nWJPfUB4EfZm27fNRs-53" value="&lt;font color=&quot;#fffcfd&quot; style=&quot;font-size: 10px;&quot;&gt;Cilindro&lt;/font&gt;" style="rounded=1;whiteSpace=wrap;html=1;fontSize=12;glass=0;strokeWidth=1;shadow=0;fillColor=#808080;" parent="WIyWlLk6GJQsqaUBKTNV-1" vertex="1">
          <mxGeometry x="-120" y="478" width="100" height="30" as="geometry" />
        </mxCell>
        <mxCell id="v4nWJPfUB4EfZm27fNRs-54" value="&lt;span style=&quot;font-family: Helvetica; font-size: 9px;&quot;&gt;Cilindro iluminado&amp;nbsp;&amp;nbsp;&lt;/span&gt;" style="text;html=1;align=right;verticalAlign=middle;whiteSpace=wrap;rounded=0;dashed=1;dashPattern=1 1;labelBackgroundColor=none;fontFamily=Times New Roman;fontSize=6;" parent="WIyWlLk6GJQsqaUBKTNV-1" vertex="1">
          <mxGeometry x="-136" y="378" width="140" height="20" as="geometry" />
        </mxCell>
        <mxCell id="v4nWJPfUB4EfZm27fNRs-57" value="&lt;font size=&quot;1&quot; style=&quot;text-align: center;&quot; face=&quot;Times New Roman&quot;&gt;&lt;i&gt;M&lt;sub&gt;cilindro&lt;/sub&gt;&lt;/i&gt;&lt;/font&gt;&lt;font style=&quot;text-align: center;&quot; size=&quot;1&quot; face=&quot;Times New Roman&quot;&gt;&lt;i&gt;&amp;nbsp;=&amp;nbsp;&lt;/i&gt;&lt;/font&gt;&lt;i style=&quot;font-family: &amp;quot;Times New Roman&amp;quot;; font-size: x-small; text-align: center;&quot;&gt;M&lt;sub&gt;corpo&lt;/sub&gt;&lt;/i&gt;&lt;i style=&quot;font-family: &amp;quot;Times New Roman&amp;quot;; font-size: x-small; text-align: center;&quot;&gt;&amp;nbsp;.&lt;/i&gt;&lt;i style=&quot;font-family: &amp;quot;Times New Roman&amp;quot;; font-size: x-small; text-align: center;&quot;&gt;&amp;nbsp;&lt;/i&gt;&lt;i style=&quot;border-color: var(--border-color); font-size: 10px; text-align: center; font-family: &amp;quot;Times New Roman&amp;quot;;&quot;&gt;T(0,&amp;nbsp;&lt;/i&gt;&lt;i style=&quot;border-color: var(--border-color); font-size: 10px; text-align: center; font-family: &amp;quot;Times New Roman&amp;quot;;&quot;&gt;&lt;i style=&quot;border-color: var(--border-color);&quot;&gt;-h&lt;/i&gt;&lt;i style=&quot;border-color: var(--border-color);&quot;&gt;&lt;sub style=&quot;border-color: var(--border-color);&quot;&gt;corpo&lt;/sub&gt;&lt;/i&gt;&lt;i style=&quot;border-color: var(--border-color);&quot;&gt;/2&lt;/i&gt;, 0)&lt;/i&gt;" style="text;whiteSpace=wrap;html=1;fontSize=9;fontFamily=Helvetica;fontColor=#000000;" parent="WIyWlLk6GJQsqaUBKTNV-1" vertex="1">
          <mxGeometry x="-89" y="327" width="152" height="30" as="geometry" />
        </mxCell>
        <mxCell id="IKCTPIxUSSBsLg2Q_fOp-0" style="edgeStyle=orthogonalEdgeStyle;rounded=0;orthogonalLoop=1;jettySize=auto;html=1;exitX=0.5;exitY=1;exitDx=0;exitDy=0;" parent="WIyWlLk6GJQsqaUBKTNV-1" source="v4nWJPfUB4EfZm27fNRs-22" target="v4nWJPfUB4EfZm27fNRs-22" edge="1">
          <mxGeometry relative="1" as="geometry" />
        </mxCell>
        <mxCell id="IKCTPIxUSSBsLg2Q_fOp-2" value="&lt;font face=&quot;Times New Roman&quot;&gt;&lt;i&gt;&lt;font size=&quot;1&quot;&gt;T(0&lt;/font&gt;&lt;font size=&quot;1&quot;&gt;, -h&lt;/font&gt;&lt;/i&gt;&lt;/font&gt;&lt;i style=&quot;font-family: &amp;quot;Times New Roman&amp;quot;;&quot;&gt;&lt;sub&gt;&lt;font style=&quot;font-size: 8.33333px;&quot;&gt;cilindro&lt;/font&gt;&lt;/sub&gt;&lt;/i&gt;&lt;font face=&quot;Times New Roman&quot;&gt;&lt;i&gt;&lt;font size=&quot;1&quot;&gt;/4,&amp;nbsp;&lt;/font&gt;&lt;span style=&quot;font-size: 8.33333px;&quot;&gt;0&lt;/span&gt;&lt;/i&gt;&lt;/font&gt;&lt;font face=&quot;Times New Roman&quot;&gt;&lt;i&gt;&lt;font size=&quot;1&quot;&gt;)&lt;/font&gt;&lt;/i&gt;&lt;/font&gt;" style="ellipse;whiteSpace=wrap;html=1;rounded=1;fillColor=#E6E6E6;" parent="WIyWlLk6GJQsqaUBKTNV-1" vertex="1">
          <mxGeometry x="-130" y="398" width="120" height="30" as="geometry" />
        </mxCell>
        <mxCell id="IKCTPIxUSSBsLg2Q_fOp-3" value="" style="endArrow=none;html=1;rounded=0;entryX=0.5;entryY=1;entryDx=0;entryDy=0;exitX=0.5;exitY=0;exitDx=0;exitDy=0;" parent="WIyWlLk6GJQsqaUBKTNV-1" source="v4nWJPfUB4EfZm27fNRs-52" target="IKCTPIxUSSBsLg2Q_fOp-2" edge="1">
          <mxGeometry width="50" height="50" relative="1" as="geometry">
            <mxPoint x="-220" y="530" as="sourcePoint" />
            <mxPoint x="-170" y="480" as="targetPoint" />
          </mxGeometry>
        </mxCell>
        <mxCell id="IKCTPIxUSSBsLg2Q_fOp-6" value="&lt;font color=&quot;#000000&quot; style=&quot;line-height: 1.2; font-size: 9px;&quot; face=&quot;Helvetica&quot;&gt;&amp;nbsp; &amp;nbsp;Cockpit&amp;nbsp;&lt;/font&gt;&lt;font color=&quot;#000000&quot; style=&quot;line-height: 1.2; font-size: 7px;&quot; face=&quot;Helvetica&quot;&gt;(calote esfÃ©rica)&lt;/font&gt;" style="text;html=1;align=left;verticalAlign=middle;whiteSpace=wrap;rounded=0;dashed=1;dashPattern=1 1;labelBackgroundColor=none;fontFamily=Times New Roman;fontSize=6;" parent="WIyWlLk6GJQsqaUBKTNV-1" vertex="1">
          <mxGeometry x="440" y="377" width="120" height="20" as="geometry" />
        </mxCell>
        <mxCell id="NHXv4hmjW0D5qCGexsZB-7" value="" style="rounded=1;whiteSpace=wrap;html=1;labelBackgroundColor=#E6E6E6;strokeColor=#000000;fontFamily=Times New Roman;fontSize=8;fontColor=#FFFCFD;fillColor=none;dashed=1;dashPattern=1 1;" parent="WIyWlLk6GJQsqaUBKTNV-1" vertex="1">
          <mxGeometry x="120" y="377" width="140" height="100" as="geometry" />
        </mxCell>
        <mxCell id="NHXv4hmjW0D5qCGexsZB-8" style="edgeStyle=orthogonalEdgeStyle;rounded=0;orthogonalLoop=1;jettySize=auto;html=1;exitX=0.5;exitY=1;exitDx=0;exitDy=0;entryX=0.5;entryY=0;entryDx=0;entryDy=0;fontFamily=Times New Roman;fontSize=6;fontColor=#FFFCFD;endArrow=none;endFill=0;" parent="WIyWlLk6GJQsqaUBKTNV-1" source="NHXv4hmjW0D5qCGexsZB-9" target="NHXv4hmjW0D5qCGexsZB-10" edge="1">
          <mxGeometry relative="1" as="geometry" />
        </mxCell>
        <mxCell id="NHXv4hmjW0D5qCGexsZB-9" value="&lt;font size=&quot;1&quot; face=&quot;Times New Roman&quot;&gt;&lt;i&gt;S(2r&lt;sub&gt;luz&lt;/sub&gt;, h&lt;/i&gt;&lt;/font&gt;&lt;i style=&quot;font-family: &amp;quot;Times New Roman&amp;quot;; font-size: x-small;&quot;&gt;&lt;sub&gt;luz&lt;/sub&gt;&lt;/i&gt;&lt;font size=&quot;1&quot; face=&quot;Times New Roman&quot;&gt;&lt;i&gt;, 2&lt;/i&gt;&lt;/font&gt;&lt;i style=&quot;font-family: &amp;quot;Times New Roman&amp;quot;; font-size: x-small;&quot;&gt;r&lt;sub&gt;luz&lt;/sub&gt;&lt;/i&gt;&lt;font size=&quot;1&quot; face=&quot;Times New Roman&quot;&gt;&lt;i&gt;)&lt;/i&gt;&lt;/font&gt;" style="ellipse;whiteSpace=wrap;html=1;rounded=1;fillColor=#E6E6E6;" parent="WIyWlLk6GJQsqaUBKTNV-1" vertex="1">
          <mxGeometry x="130" y="397" width="120" height="30" as="geometry" />
        </mxCell>
        <mxCell id="NHXv4hmjW0D5qCGexsZB-10" value="&lt;font color=&quot;#fffcfd&quot; style=&quot;font-size: 10px;&quot;&gt;Esfera&lt;/font&gt;" style="rounded=1;whiteSpace=wrap;html=1;fontSize=12;glass=0;strokeWidth=1;shadow=0;fillColor=#808080;" parent="WIyWlLk6GJQsqaUBKTNV-1" vertex="1">
          <mxGeometry x="140" y="438" width="100" height="30" as="geometry" />
        </mxCell>
        <mxCell id="NHXv4hmjW0D5qCGexsZB-11" value="&lt;font color=&quot;#000000&quot; style=&quot;line-height: 1.2; font-size: 9px;&quot; face=&quot;Helvetica&quot;&gt;Luz EsfÃ©rica&amp;nbsp;&amp;nbsp;&lt;/font&gt;" style="text;html=1;align=right;verticalAlign=middle;whiteSpace=wrap;rounded=0;dashed=1;dashPattern=1 1;labelBackgroundColor=none;fontFamily=Times New Roman;fontSize=6;" parent="WIyWlLk6GJQsqaUBKTNV-1" vertex="1">
          <mxGeometry x="120" y="378" width="140" height="20" as="geometry" />
        </mxCell>
        <mxCell id="NHXv4hmjW0D5qCGexsZB-12" value="&lt;font style=&quot;font-size: 10px;&quot;&gt;&lt;i style=&quot;font-family: &amp;quot;Times New Roman&amp;quot;;&quot;&gt;T(5&lt;/i&gt;&lt;i style=&quot;border-color: var(--border-color); font-family: &amp;quot;Times New Roman&amp;quot;; font-size: x-small;&quot;&gt;r&lt;sub style=&quot;border-color: var(--border-color);&quot;&gt;corpo&lt;/sub&gt;&lt;/i&gt;&lt;i style=&quot;font-family: &amp;quot;Times New Roman&amp;quot;;&quot;&gt;/8, -5h&lt;/i&gt;&lt;i style=&quot;font-family: &amp;quot;Times New Roman&amp;quot;;&quot;&gt;&lt;sub&gt;corpo&lt;/sub&gt;&lt;/i&gt;&lt;i style=&quot;font-family: &amp;quot;Times New Roman&amp;quot;;&quot;&gt;/16, 0)&lt;/i&gt;&lt;/font&gt;" style="ellipse;whiteSpace=wrap;html=1;rounded=1;fillColor=#E6E6E6;" parent="WIyWlLk6GJQsqaUBKTNV-1" vertex="1">
          <mxGeometry x="70" y="290" width="120" height="30" as="geometry" />
        </mxCell>
        <mxCell id="NHXv4hmjW0D5qCGexsZB-13" value="" style="endArrow=none;html=1;rounded=0;fontFamily=Helvetica;fontSize=8.333333;fontColor=#000000;exitX=0.5;exitY=1;exitDx=0;exitDy=0;entryX=0.5;entryY=0;entryDx=0;entryDy=0;" parent="WIyWlLk6GJQsqaUBKTNV-1" source="NHXv4hmjW0D5qCGexsZB-12" target="NHXv4hmjW0D5qCGexsZB-14" edge="1">
          <mxGeometry width="50" height="50" relative="1" as="geometry">
            <mxPoint x="170" y="429" as="sourcePoint" />
            <mxPoint x="180" y="459" as="targetPoint" />
          </mxGeometry>
        </mxCell>
        <mxCell id="NHXv4hmjW0D5qCGexsZB-14" value="" style="ellipse;whiteSpace=wrap;html=1;rounded=1;labelBackgroundColor=#E6E6E6;strokeColor=#000000;fontSize=10;fontColor=#FFFCFD;fillColor=#000000;" parent="WIyWlLk6GJQsqaUBKTNV-1" vertex="1">
          <mxGeometry x="125" y="351" width="10" height="10" as="geometry" />
        </mxCell>
        <mxCell id="NHXv4hmjW0D5qCGexsZB-15" value="&lt;font style=&quot;text-align: center;&quot; face=&quot;Times New Roman&quot;&gt;&lt;i style=&quot;&quot;&gt;&lt;font size=&quot;1&quot;&gt;M&lt;/font&gt;&lt;span style=&quot;font-size: 8.33333px;&quot;&gt;&lt;sub&gt;luz_esfÃ©rica&lt;/sub&gt;&lt;/span&gt;&lt;/i&gt;&lt;/font&gt;&lt;font style=&quot;text-align: center;&quot; size=&quot;1&quot; face=&quot;Times New Roman&quot;&gt;&lt;i&gt;&amp;nbsp;=&amp;nbsp;&lt;/i&gt;&lt;/font&gt;&lt;i style=&quot;font-family: &amp;quot;Times New Roman&amp;quot;; font-size: x-small; text-align: center;&quot;&gt;M&lt;sub&gt;corpo&lt;/sub&gt;&lt;/i&gt;&lt;i style=&quot;font-family: &amp;quot;Times New Roman&amp;quot;; font-size: x-small; text-align: center;&quot;&gt;&amp;nbsp;.&lt;/i&gt;&lt;i style=&quot;font-family: &amp;quot;Times New Roman&amp;quot;; font-size: x-small; text-align: center;&quot;&gt;&amp;nbsp;&lt;/i&gt;&lt;i style=&quot;border-color: var(--border-color); font-size: 10px; text-align: center; font-family: &amp;quot;Times New Roman&amp;quot;;&quot;&gt;T(5&lt;/i&gt;&lt;i style=&quot;border-color: var(--border-color); font-size: x-small; text-align: center; font-family: &amp;quot;Times New Roman&amp;quot;;&quot;&gt;r&lt;sub style=&quot;border-color: var(--border-color);&quot;&gt;corpo&lt;/sub&gt;&lt;/i&gt;&lt;i style=&quot;border-color: var(--border-color); font-size: 10px; text-align: center; font-family: &amp;quot;Times New Roman&amp;quot;;&quot;&gt;/8, -5h&lt;/i&gt;&lt;i style=&quot;border-color: var(--border-color); font-size: 10px; text-align: center; font-family: &amp;quot;Times New Roman&amp;quot;;&quot;&gt;&lt;sub style=&quot;border-color: var(--border-color);&quot;&gt;corpo&lt;/sub&gt;&lt;/i&gt;&lt;i style=&quot;border-color: var(--border-color); font-size: 10px; text-align: center; font-family: &amp;quot;Times New Roman&amp;quot;;&quot;&gt;/16, 0)&lt;/i&gt;" style="text;whiteSpace=wrap;html=1;fontSize=9;fontFamily=Helvetica;fontColor=#000000;" parent="WIyWlLk6GJQsqaUBKTNV-1" vertex="1">
          <mxGeometry x="135" y="327" width="212" height="30" as="geometry" />
        </mxCell>
        <mxCell id="NHXv4hmjW0D5qCGexsZB-16" value="" style="endArrow=none;html=1;rounded=0;entryX=0.63;entryY=0.959;entryDx=0;entryDy=0;exitX=0.212;exitY=0.1;exitDx=0;exitDy=0;exitPerimeter=0;entryPerimeter=0;" parent="WIyWlLk6GJQsqaUBKTNV-1" source="NHXv4hmjW0D5qCGexsZB-9" target="NHXv4hmjW0D5qCGexsZB-14" edge="1">
          <mxGeometry width="50" height="50" relative="1" as="geometry">
            <mxPoint x="190" y="400" as="sourcePoint" />
            <mxPoint x="240" y="350" as="targetPoint" />
            <Array as="points" />
          </mxGeometry>
        </mxCell>
        <mxCell id="NHXv4hmjW0D5qCGexsZB-17" value="" style="endArrow=none;html=1;rounded=0;entryX=0.5;entryY=0;entryDx=0;entryDy=0;exitX=1;exitY=1;exitDx=0;exitDy=0;" parent="WIyWlLk6GJQsqaUBKTNV-1" source="v4nWJPfUB4EfZm27fNRs-6" target="NHXv4hmjW0D5qCGexsZB-12" edge="1">
          <mxGeometry width="50" height="50" relative="1" as="geometry">
            <mxPoint x="240" y="265" as="sourcePoint" />
            <mxPoint x="260" y="290" as="targetPoint" />
            <Array as="points" />
          </mxGeometry>
        </mxCell>
        <mxCell id="NHXv4hmjW0D5qCGexsZB-19" value="&lt;font style=&quot;font-size: 10px;&quot;&gt;&lt;b&gt;Grafo de Cena do Disco Voador&lt;/b&gt;&lt;br&gt;Projeto de ComputaÃ§Ã£o GrÃ¡fica 24/25 - Trabalho A&lt;br&gt;&lt;br&gt;&lt;i&gt;Francisco Heleno, ist1106970&lt;br&gt;Rodrigo Perestrelo, ist1106074&lt;br&gt;Mafalda Dias, ist1106494&lt;br&gt;&lt;/i&gt;&lt;/font&gt;" style="text;html=1;strokeColor=#CCCCCC;fillColor=none;align=center;verticalAlign=middle;whiteSpace=wrap;rounded=0;dashed=1;dashPattern=12 12;" parent="WIyWlLk6GJQsqaUBKTNV-1" vertex="1">
          <mxGeometry x="-340" y="70" width="240" height="100" as="geometry" />
        </mxCell>
        <mxCell id="NHXv4hmjW0D5qCGexsZB-21" value="&lt;div style=&quot;text-align: justify; font-size: 10px;&quot;&gt;&lt;u style=&quot;background-color: initial;&quot;&gt;Nota&lt;/u&gt;&lt;span style=&quot;background-color: initial;&quot;&gt;:&amp;nbsp;&lt;/span&gt;&lt;span style=&quot;background-color: initial; text-align: center;&quot;&gt;Para simplificar a representaÃ§Ã£o, e considerando a grande quantidade de esferas de luz dispostas radialmente Ã  volta do corpo do disco, optÃ¡mos por ilustrar apenas uma delas.&lt;/span&gt;&lt;/div&gt;" style="text;html=1;strokeColor=#CCCCCC;fillColor=none;align=center;verticalAlign=middle;whiteSpace=wrap;rounded=0;dashed=1;dashPattern=12 12;" parent="WIyWlLk6GJQsqaUBKTNV-1" vertex="1">
          <mxGeometry x="-340" y="518" width="170" height="70" as="geometry" />
        </mxCell>
      </root>
    </mxGraphModel>
  </diagram>
</mxfile>
